<?xml version="1.0" encoding="UTF-8" standalone="no"?>
<!-- Generator: Adobe Illustrator 16.0.0, SVG Export Plug-In . SVG Version: 6.00 Build 0)  -->

<svg
   xmlns:dc="http://purl.org/dc/elements/1.1/"
   xmlns:cc="http://creativecommons.org/ns#"
   xmlns:rdf="http://www.w3.org/1999/02/22-rdf-syntax-ns#"
   xmlns:svg="http://www.w3.org/2000/svg"
   xmlns="http://www.w3.org/2000/svg"
   xmlns:sodipodi="http://sodipodi.sourceforge.net/DTD/sodipodi-0.dtd"
   xmlns:inkscape="http://www.inkscape.org/namespaces/inkscape"
   version="1.1"
   id="Layer_1"
   x="0px"
   y="0px"
   width="435.721px"
   height="85.242px"
   viewBox="62.402 -18.766 435.721 85.242"
   enable-background="new 62.402 -18.766 435.721 85.242"
   xml:space="preserve"
   inkscape:version="0.48.4 r9939"
   sodipodi:docname="logo.svg"><metadata
     id="metadata3143"><rdf:RDF><cc:Work
         rdf:about=""><dc:format>image/svg+xml</dc:format><dc:type
           rdf:resource="http://purl.org/dc/dcmitype/StillImage" /></cc:Work></rdf:RDF></metadata><defs
     id="defs3141" /><sodipodi:namedview
     pagecolor="#ffffff"
     bordercolor="#666666"
     borderopacity="1"
     objecttolerance="10"
     gridtolerance="10"
     guidetolerance="10"
     inkscape:pageopacity="0"
     inkscape:pageshadow="2"
     inkscape:window-width="1366"
     inkscape:window-height="713"
     id="namedview3139"
     showgrid="false"
     inkscape:zoom="2.7425806"
     inkscape:cx="160.01578"
     inkscape:cy="42.620998"
     inkscape:window-x="0"
     inkscape:window-y="30"
     inkscape:window-maximized="1"
     inkscape:current-layer="Layer_1" /><path
     d="m 146.88569,23.011017 c 0,-3.602779 -1.07775,-7.056606 -3.2039,-10.268385 -1.90917,-2.8823663 -4.58386,-5.433887 -7.94889,-7.5843829 -6.49803,-4.1506069 -15.03843,-6.4371649 -24.04645,-6.4371649 -3.00912,0 -5.97527,0.254221 -8.85191,0.75836604 -1.78456,-1.67069804 -3.874183,-3.17382504 -6.084832,-4.36186104 -11.811615,-5.7246302 -21.606647,-0.13463 -21.606647,-0.13463 0,0 9.106845,7.4812622 7.625917,14.0387348 -4.073983,4.041758 -6.282484,8.915642 -6.282484,13.989323 0,0.01575 7.16e-4,0.03223 7.16e-4,0.0487 0,0.01576 -7.16e-4,0.03151 -7.16e-4,0.0487 0,5.073681 2.207785,9.947565 6.282484,13.988607 1.480928,6.558189 -7.625917,14.039451 -7.625917,14.039451 0,0 9.795032,5.589284 21.606647,-0.13463 2.210649,-1.188036 4.299562,-2.69188 6.084832,-4.361862 2.87736,0.50343 5.84279,0.757651 8.85191,0.757651 9.00874,0 17.54842,-2.285126 24.04645,-6.435733 3.36503,-2.150496 6.03972,-4.7013 7.94889,-7.585099 2.12615,-3.211063 3.2039,-6.666322 3.2039,-10.267669 0,-0.01647 -7.1e-4,-0.03223 -7.1e-4,-0.0487 0,-0.01647 7.1e-4,-0.03366 7.1e-4,-0.04941 z"
     id="path3117"
     inkscape:connector-curvature="0"
     style="fill:#c1272d" /><path
     d="m 111.68645,3.8148159 c 16.68049,0 30.20362,8.6377891 30.20362,19.2928761 0,10.654371 -13.52313,19.292877 -30.20362,19.292877 -3.71449,0 -7.27144,-0.42967 -10.55769,-1.212384 -3.339968,4.017409 -10.687317,9.603829 -17.824843,7.798501 2.321647,-2.493515 5.761152,-6.707141 5.024985,-13.647736 C 84.050826,32.010444 81.482834,27.750271 81.482834,23.107692 81.482118,12.451889 95.00525,3.8148159 111.68645,3.8148159"
     id="path3119"
     inkscape:connector-curvature="0"
     style="fill:#ffffff" /><g
     id="g3121"
     transform="matrix(0.71611583,0,0,0.71611583,30.455285,5.9760534)"><g
       id="g3123"><circle
         cx="113.433"
         cy="24.790001"
         r="5.6030002"
         id="circle3125"
         d="m 119.036,24.790001 c 0,3.094451 -2.50855,5.603 -5.603,5.603 -3.09445,0 -5.603,-2.508549 -5.603,-5.603 0,-3.094452 2.50855,-5.603 5.603,-5.603 3.09445,0 5.603,2.508548 5.603,5.603 z"
         sodipodi:cx="113.433"
         sodipodi:cy="24.790001"
         sodipodi:rx="5.6030002"
         sodipodi:ry="5.6030002"
         style="fill:#c1272d" /></g><g
       id="g3127"><circle
         cx="132.91299"
         cy="24.790001"
         r="5.6030002"
         id="circle3129"
         d="m 138.51599,24.790001 c 0,3.094451 -2.50854,5.603 -5.603,5.603 -3.09445,0 -5.603,-2.508549 -5.603,-5.603 0,-3.094452 2.50855,-5.603 5.603,-5.603 3.09446,0 5.603,2.508548 5.603,5.603 z"
         sodipodi:cx="132.91299"
         sodipodi:cy="24.790001"
         sodipodi:rx="5.6030002"
         sodipodi:ry="5.6030002"
         style="fill:#c1272d" /></g><g
       id="g3131"><circle
         cx="93.952003"
         cy="24.790001"
         r="5.6020002"
         id="circle3133"
         d="m 99.554004,24.790001 c 0,3.093899 -2.508101,5.602 -5.602001,5.602 -3.093899,0 -5.602,-2.508101 -5.602,-5.602 0,-3.093899 2.508101,-5.602 5.602,-5.602 3.0939,0 5.602001,2.508101 5.602001,5.602 z"
         sodipodi:cx="93.952003"
         sodipodi:cy="24.790001"
         sodipodi:rx="5.6020002"
         sodipodi:ry="5.6020002"
         style="fill:#c1272d" /></g></g><g
     id="g3135"
     transform="matrix(0.71611583,0,0,0.71611583,30.455285,5.9760534)"><path
       d="m 113.433,47.319 c -5.187,0 -10.154,-0.52 -14.743,-1.468 -4.118,4.294 -12.6,10.066 -21.39,9.854 -1.158,1.755 -2.417,3.19 -3.501,4.355 9.967,2.521 20.227,-5.279 24.891,-10.89 4.589,1.094 9.557,1.693 14.743,1.693 23.106,0 41.87,-11.871 42.169,-26.585 -0.299,12.754 -19.063,23.041 -42.169,23.041 z"
       id="path3137"
       inkscape:connector-curvature="0"
       style="fill:#cccccc" /></g><text
     xml:space="preserve"
     style="font-size:59.08149337999999773px;font-style:normal;font-variant:normal;font-stretch:normal;text-align:start;line-height:125%;letter-spacing:0px;word-spacing:0px;writing-mode:lr-tb;text-anchor:start;fill:#f4f4f4;fill-opacity:1;stroke:none;font-family:Lato;-inkscape-font-specification:Lato Semi-Light"
     x="170.70987"
     y="45.193256"
     id="text3913"
     sodipodi:linespacing="125%"
     transform="scale(0.95837517,1.0434327)"><tspan
       sodipodi:role="line"
       id="tspan3915"
       x="170.70987"
       y="45.193256"
       style="font-size:59.08149337999999773px;font-style:normal;font-variant:normal;font-stretch:normal;text-align:start;line-height:125%;writing-mode:lr-tb;text-anchor:start;font-family:Lato;-inkscape-font-specification:Lato Semi-Light;fill:#f4f4f4;fill-opacity:1">SANG LUCCI</tspan></text>
</svg>